<svg xmlns="http://www.w3.org/2000/svg" viewBox="0 0 100 100">
  <path d="M15 85 L15 40 L35 65 L50 45 L65 65 L85 40 L85 85 L72 85 L72 60 L58 78 L50 68 L42 78 L28 60 L28 85 Z" fill="#2d6a2e"/>
  <path d="M47 45 Q50 20 53 45" fill="none" stroke="#d4651a" stroke-width="3"/>
  <ellipse cx="42" cy="25" rx="6" ry="4" fill="#2d6a2e" transform="rotate(-30 42 25)"/>
  <ellipse cx="50" cy="18" rx="5" ry="3.5" fill="#4e9a47"/>
  <ellipse cx="58" cy="25" rx="6" ry="4" fill="#7cb342" transform="rotate(30 58 25)"/>
  <ellipse cx="45" cy="32" rx="5" ry="3" fill="#ffd600" transform="rotate(-20 45 32)"/>
  <ellipse cx="55" cy="32" rx="5" ry="3" fill="#2d6a2e" transform="rotate(20 55 32)"/>
</svg>
